<svg width="154" height="50" viewBox="0 0 154 50" fill="none" xmlns="http://www.w3.org/2000/svg">
<path d="M65.4034 30.0904H62.6636V18.1209H65.2393V20.078C65.7864 19.2447 66.4051 18.6386 67.0953 18.2598C67.794 17.8726 68.6146 17.679 69.5574 17.679C70.4917 17.679 71.2661 17.8768 71.8806 18.2724C72.495 18.6596 72.9622 19.2531 73.2821 20.0527C73.9134 19.2278 74.5826 18.626 75.2896 18.2472C76.0051 17.8684 76.8174 17.679 77.7264 17.679C78.5177 17.679 79.2079 17.8263 79.7971 18.1209C80.3863 18.4071 80.8451 18.828 81.1733 19.3835C81.3249 19.6445 81.4343 19.9559 81.5016 20.3179C81.5774 20.6798 81.6153 21.1975 81.6153 21.8709V30.0904H78.8754V23.9415C78.8754 22.3338 78.7028 21.2774 78.3577 20.7724C78.021 20.2589 77.415 20.0022 76.5396 20.0022C75.4622 20.0022 74.692 20.3473 74.229 21.0376C73.7745 21.7194 73.5472 22.9188 73.5472 24.636V30.0904H70.7821V23.9415C70.7821 22.4601 70.6011 21.4332 70.2392 20.8608C69.8857 20.2884 69.2712 20.0022 68.3958 20.0022C67.8571 20.0022 67.3647 20.1243 66.9185 20.3684C66.4724 20.6125 66.1189 20.9492 65.858 21.3785C65.6896 21.6562 65.5718 21.9971 65.5044 22.4012C65.4371 22.8052 65.4034 23.5501 65.4034 24.636V30.0904Z" fill="white"/>
<path d="M96.5519 30.0904H93.812V28.5374C93.3238 29.2276 92.7514 29.7411 92.0949 30.0778C91.4467 30.4145 90.7018 30.5828 89.8601 30.5828C88.1682 30.5828 86.834 30.0062 85.8576 28.8531C84.8896 27.6915 84.4056 26.1048 84.4056 24.0931C84.4056 22.1823 84.9022 20.6419 85.8955 19.4719C86.8887 18.2935 88.185 17.7043 89.7843 17.7043C90.7607 17.7043 91.594 17.9105 92.2843 18.323C92.9829 18.727 93.4921 19.312 93.812 20.078V18.1209H96.5519V30.0904ZM93.8878 24.0678C93.8878 22.8304 93.5974 21.8667 93.0166 21.1764C92.4442 20.4862 91.6403 20.1411 90.605 20.1411C89.5697 20.1411 88.7532 20.4988 88.1555 21.2143C87.5663 21.9214 87.2717 22.9062 87.2717 24.1688C87.2717 25.4398 87.5579 26.4205 88.1303 27.1107C88.7027 27.8009 89.5107 28.146 90.5545 28.146C91.5393 28.146 92.339 27.7714 92.9534 27.0223C93.5763 26.2731 93.8878 25.2883 93.8878 24.0678Z" fill="white"/>
<path d="M108.938 24.0678C108.938 22.8304 108.648 21.8667 108.067 21.1764C107.494 20.4862 106.691 20.1411 105.655 20.1411C104.62 20.1411 103.803 20.4988 103.206 21.2143C102.617 21.9214 102.322 22.9062 102.322 24.1688C102.322 25.4398 102.608 26.4205 103.181 27.1107C103.753 27.8009 104.561 28.146 105.605 28.146C106.59 28.146 107.389 27.7714 108.004 27.0223C108.627 26.2731 108.938 25.2883 108.938 24.0678ZM111.602 29.3455C111.602 31.6855 111.135 33.3311 110.201 34.2823C109.266 35.2418 107.692 35.7216 105.478 35.7216C103.829 35.7216 102.511 35.3723 101.527 34.6737C100.542 33.9834 100.041 33.0617 100.024 31.9086L102.966 31.8959C103.008 32.4094 103.248 32.8008 103.686 33.0702C104.123 33.3395 104.738 33.4742 105.529 33.4742C106.699 33.4742 107.541 33.2175 108.054 32.704C108.568 32.1906 108.829 31.332 108.837 30.1283L108.862 28.5374C108.374 29.2276 107.802 29.7411 107.145 30.0778C106.497 30.4145 105.752 30.5828 104.91 30.5828C103.218 30.5828 101.884 30.0062 100.908 28.8531C99.9398 27.6915 99.4558 26.1048 99.4558 24.0931C99.4558 22.1823 99.9525 20.6419 100.946 19.4719C101.939 18.2935 103.235 17.7043 104.835 17.7043C105.811 17.7043 106.644 17.9105 107.334 18.323C108.033 18.727 108.542 19.312 108.862 20.078V18.1209H111.602V29.3455Z" fill="white"/>
<path d="M126.842 30.8101L124.077 24.5855C123.866 24.1057 123.694 23.6806 123.559 23.3102C123.424 22.9315 123.302 22.5611 123.193 22.1991C123.008 22.7463 122.843 23.2176 122.7 23.6133C122.557 24.0005 122.444 24.2909 122.359 24.4845L119.519 30.8101L113.319 18.1209H116.236L118.925 23.891C119.035 24.1351 119.14 24.4718 119.241 24.9011C119.35 25.322 119.443 25.7891 119.519 26.3026C119.527 25.9996 119.578 25.6839 119.67 25.3557C119.763 25.0274 119.918 24.6233 120.137 24.1436L123.067 17.679H123.294L126.274 24.1436C126.459 24.5476 126.593 24.9222 126.678 25.2673C126.77 25.6124 126.825 25.9575 126.842 26.3026C126.917 25.8481 127.014 25.4188 127.132 25.0148C127.25 24.6107 127.385 24.2446 127.536 23.9163L130.175 18.1209H133.066L126.842 30.8101Z" fill="white"/>
<path d="M146.046 30.0904H143.306V28.5374C142.818 29.2276 142.245 29.7411 141.589 30.0778C140.941 30.4145 140.196 30.5828 139.354 30.5828C137.662 30.5828 136.328 30.0062 135.352 28.8531C134.384 27.6915 133.9 26.1048 133.9 24.0931C133.9 22.1823 134.396 20.6419 135.39 19.4719C136.383 18.2935 137.679 17.7043 139.278 17.7043C140.255 17.7043 141.088 17.9105 141.778 18.323C142.477 18.727 142.986 19.312 143.306 20.078V18.1209H146.046V30.0904ZM143.382 24.0678C143.382 22.8304 143.091 21.8667 142.511 21.1764C141.938 20.4862 141.134 20.1411 140.099 20.1411C139.064 20.1411 138.247 20.4988 137.65 21.2143C137.06 21.9214 136.766 22.9062 136.766 24.1688C136.766 25.4398 137.052 26.4205 137.624 27.1107C138.197 27.8009 139.005 28.146 140.049 28.146C141.033 28.146 141.833 27.7714 142.448 27.0223C143.07 26.2731 143.382 25.2883 143.382 24.0678Z" fill="white"/>
<path d="M149.594 12.9443C149.594 12.4813 149.762 12.0815 150.099 11.7448C150.444 11.4081 150.852 11.2397 151.324 11.2397C151.812 11.2397 152.216 11.4039 152.536 11.7322C152.864 12.052 153.028 12.4561 153.028 12.9443C153.028 13.4325 152.864 13.8449 152.536 14.1816C152.207 14.5099 151.803 14.674 151.324 14.674C150.852 14.674 150.444 14.5057 150.099 14.169C149.762 13.8239 149.594 13.4156 149.594 12.9443ZM149.96 30.0904V18.1209H152.7V30.0904H149.96Z" fill="white"/>
<path d="M35.0788 32.1494C36.2832 29.7069 37.6255 26.9845 38.7971 24.6135L38.7942 24.6108L24.6291 23.2278C23.7687 23.1158 22.9839 22.6784 22.4359 22.0057C22.1305 21.2359 22.1034 20.3837 22.3593 19.596L27.2521 6.17543C19.7418 6.16347 12.2447 6.12463 11.2626 6.0919C10.2597 6.05926 7.81078 6.05472 7.06781 7.62255C6.4821 9.28649 7.06259 10.5293 9.56645 12.1357C9.83774 12.3011 10.1077 12.4613 10.3745 12.6197C12.0241 13.5988 13.5492 14.504 14.4812 16.087C15.497 17.8125 14.041 19.3279 13.5489 19.7012L6.06622 24.3779C5.07583 24.9969 4.77475 26.3016 5.39374 27.292C6.01274 28.2824 7.31742 28.5834 8.30781 27.9644L15.3805 23.544C16.2305 25.0002 17.2203 26.6338 18.0438 27.9764L15.1691 29.7731C14.1787 30.3921 13.8776 31.6967 14.4966 32.6871C15.1156 33.6775 16.4203 33.9786 17.4107 33.3596L19.9424 31.7773C19.9434 31.779 19.9445 31.7807 19.9455 31.7824C25.3086 28.4314 25.6148 35.4117 25.7039 37.9603C25.7931 40.5089 27.1362 41.7887 28.1541 41.8805C29.4682 42.0102 30.5573 41.26 31.6763 39.0359C31.9689 38.4568 33.3824 35.5901 35.0684 32.1707L35.0701 32.1671L35.0788 32.1494Z" fill="white"/>
<path d="M32.2989 6.40889C32.4944 6.2992 32.7046 6.22202 32.9213 6.17876C36.407 6.17679 39.493 6.16627 41.4067 6.14329C48.0922 6.063 45.854 10.5057 45.1235 11.9558L41.5046 19.1589C41.4017 19.3635 41.2794 19.6078 41.1402 19.8868C41.0642 19.9677 40.9825 20.0436 40.8955 20.1138C40.5246 20.4135 40.0737 20.5975 39.5991 20.643C39.5991 20.643 34.2598 20.1808 30.4811 19.7762C30.2537 19.7516 30.0407 19.7299 29.8414 19.7096C28.4592 19.5688 27.7324 19.4949 27.4086 18.9768C27.0318 18.3739 27.5754 16.8552 27.87 16.0324C27.9075 15.9276 27.9409 15.8341 27.968 15.7552C28.1595 15.2635 28.3241 14.8354 28.4785 14.4342C29.1634 12.6534 29.6449 11.4016 31.3672 7.47199C31.547 7.02148 31.8759 6.64624 32.2989 6.40889Z" fill="white"/>
<path d="M48.8849 16.1854C49.3663 16.9557 49.1321 17.9705 48.3618 18.452C47.5915 18.9334 46.5767 18.6992 46.0952 17.9289C45.6138 17.1586 45.848 16.1438 46.6183 15.6623C47.3886 15.1809 48.4034 15.4151 48.8849 16.1854Z" fill="white"/>
<path d="M11.672 34.451C12.291 35.4414 11.99 36.7461 10.9996 37.3651L9.80382 38.1124C8.81342 38.7314 7.50875 38.4303 6.88975 37.4399C6.27075 36.4495 6.57183 35.1449 7.56223 34.5259L8.75797 33.7785C9.74837 33.1595 11.053 33.4606 11.672 34.451Z" fill="white"/>
<path d="M15.4072 1.01025C15.4072 1.01025 7.77196 1.06566 7.07024 1.14805C5.72125 1.30251 2.72513 1.96326 1.49179 4.43568C-0.188069 7.80427 2.97453 12.5766 2.97453 12.5766L6.95069 18.9337" stroke="#BFECFF" stroke-width="1.5" stroke-linecap="round"/>
<path d="M51.1889 11.3271C51.1889 11.3271 53.6512 7.4697 51.6865 4.259C49.7217 1.04831 44.1227 1 44.1227 1L23.3047 1.11169" stroke="#FE60B7" stroke-width="1.5" stroke-linecap="round"/>
<path d="M18.6125 37.9159C18.6125 37.9159 22.7202 44.5287 22.9232 44.8137C23.4861 45.6085 25.8559 48.5737 29.0302 48.2702C32.7771 47.9113 35.1506 42.7014 35.1506 42.7014L45.0087 22.9644" stroke="#A072FD" stroke-width="1.5" stroke-linecap="round"/>
</svg>
